<?xml version="1.0" standalone="no"?>
<!DOCTYPE svg PUBLIC "-//W3C//DTD SVG 20010904//EN"
 "http://www.w3.org/TR/2001/REC-SVG-20010904/DTD/svg10.dtd">
<svg version="1.0" xmlns="http://www.w3.org/2000/svg"
 width="663.000000pt" height="663.000000pt" viewBox="0 0 663.000000 663.000000"
 preserveAspectRatio="xMidYMid meet">
<metadata>
Created by potrace 1.16, written by Peter Selinger 2001-2019
</metadata>
<g transform="translate(0.000000,663.000000) scale(0.100000,-0.100000)"
fill="#000000" stroke="none">
<path d="M6605 6218 c10 -821 15 -3644 7 -3673 l-8 -30 -372 -3 c-363 -2 -371
-2 -382 18 -14 25 -31 25 -60 0 -13 -12 -38 -20 -59 -21 -20 0 -139 -1 -266
-2 -126 -1 -236 -6 -242 -10 -7 -5 -13 -21 -13 -37 0 -44 -36 -77 -105 -94
-49 -13 -111 -14 -335 -11 -248 4 -390 10 -490 19 -19 2 -93 6 -165 11 -128 7
-207 16 -295 34 -25 5 -64 12 -88 15 -24 3 -48 8 -53 12 -6 3 -30 7 -54 9 -34
2 -49 -3 -69 -21 -14 -13 -30 -24 -35 -24 -6 0 -22 -18 -37 -39 -27 -42 -64
-52 -64 -19 0 10 -6 18 -13 18 -7 0 -18 9 -24 19 -19 30 -115 39 -468 46 -364
7 -465 12 -515 25 -55 15 -66 12 -106 -30 -20 -21 -41 -37 -45 -35 -4 3 -9 0
-11 -5 -2 -6 -18 2 -35 17 -45 40 -104 70 -136 69 -15 -1 -27 1 -27 5 0 3 -12
7 -27 7 -128 6 -266 22 -273 31 -3 4 -14 6 -25 4 -11 -3 -29 -4 -40 -3 -26 2
-44 2 -75 1 -14 0 -72 1 -130 4 -98 4 -164 -6 -186 -28 -4 -4 -15 -7 -24 -7
-10 0 -24 -7 -31 -16 -23 -27 -51 -32 -109 -17 -30 8 -127 18 -215 22 -171 8
-199 16 -210 60 -13 51 61 79 220 82 55 1 106 6 113 12 20 16 89 17 102 2 6
-8 44 -16 86 -20 63 -6 78 -5 94 10 10 9 27 16 37 15 38 -4 50 1 62 26 11 24
10 26 -7 22 -11 -3 -19 0 -19 8 0 8 4 14 9 14 4 0 8 7 8 16 0 13 7 15 36 9 56
-10 74 -25 67 -55 -3 -14 -10 -31 -16 -37 -7 -9 -5 -13 6 -13 8 0 28 -7 43
-15 16 -8 37 -15 46 -15 9 0 19 -4 22 -9 4 -5 23 -5 46 1 42 11 47 23 31 78
-5 15 -3 36 6 52 7 15 15 40 17 55 2 15 6 35 10 43 37 90 37 150 -2 150 -9 0
-27 3 -39 6 -16 4 -28 -2 -45 -22 -73 -85 -75 -87 -127 -90 -27 -1 -56 -6 -63
-10 -7 -4 -10 -3 -5 1 4 5 -2 19 -14 31 -19 20 -21 30 -14 71 4 26 9 71 10 98
1 54 -19 138 -35 143 -6 2 -10 10 -10 18 0 8 -4 14 -8 14 -4 0 -13 15 -20 33
-21 56 -28 63 -47 44 -11 -11 -25 -15 -41 -11 -14 4 -24 2 -24 -4 0 -7 -10 -8
-27 -3 -16 4 -33 6 -39 4 -16 -6 -71 63 -78 98 -8 40 -44 56 -85 38 -24 -11
-35 -25 -47 -63 -21 -61 -72 -126 -100 -126 -8 0 -14 -5 -14 -11 0 -5 -4 -8
-9 -4 -6 3 -8 -21 -4 -63 6 -68 5 -69 -25 -90 -42 -31 -81 -28 -114 7 -17 17
-42 31 -65 34 -43 7 -79 -12 -155 -83 -23 -22 -58 -45 -75 -52 -18 -7 -33 -15
-33 -18 0 -11 -62 -10 -112 1 -56 13 -99 2 -169 -42 -25 -16 -53 -29 -63 -29
-15 0 -16 -25 -14 -307 l3 -307 54 1 c37 2 73 11 115 32 90 44 155 56 197 37
19 -9 41 -21 50 -28 13 -9 25 -8 55 8 23 10 66 20 104 22 36 1 107 5 158 8
101 6 449 -21 485 -37 13 -6 32 -23 42 -40 23 -34 28 -35 63 -10 55 38 96 44
261 36 167 -8 184 -11 219 -45 27 -25 23 -47 -17 -99 -23 -30 -26 -45 -29
-136 -4 -94 -2 -103 14 -108 22 -7 135 -15 294 -22 63 -2 151 -7 195 -10 123
-8 118 -18 113 229 -5 199 -4 206 16 224 37 32 74 42 139 37 34 -3 168 -12
299 -19 264 -16 260 -15 340 -98 l46 -49 70 2 c56 2 75 -2 94 -17 30 -24 51
-83 42 -118 -3 -14 -2 -32 4 -39 20 -23 52 -122 52 -158 0 -20 6 -41 13 -47 7
-6 44 -13 83 -14 l69 -3 3 78 c3 90 -6 109 -52 107 -48 -3 -51 -2 -85 30 -39
38 -39 63 -1 100 58 57 133 77 238 65 l57 -7 150 -153 c239 -243 285 -292 285
-304 0 -8 112 -11 393 -12 215 0 600 -4 855 -8 378 -6 466 -10 477 -22 11 -12
63 -188 156 -532 10 -37 21 -72 24 -77 6 -10 -21 -57 -30 -52 -3 1 -18 2 -35
2 -21 0 -30 -5 -30 -16 0 -10 -6 -14 -14 -11 -8 3 -16 1 -19 -6 -2 -8 -23 -7
-78 5 -48 10 -78 13 -84 6 -6 -6 -4 -7 8 -2 15 6 18 3 15 -17 -2 -19 -11 -25
-43 -30 -22 -3 -34 -7 -27 -8 6 0 12 -7 12 -15 0 -10 -7 -12 -21 -9 -14 4 -26
0 -33 -9 -6 -8 -21 -18 -34 -22 -17 -6 -24 -3 -31 16 -6 13 -10 17 -10 11 -1
-7 -8 -13 -16 -13 -8 0 -15 -4 -15 -10 0 -5 -11 -10 -24 -10 -29 0 -42 -15
-21 -24 21 -8 8 -32 -26 -46 -16 -7 -26 -16 -23 -21 3 -5 -4 -9 -16 -9 -11 0
-23 6 -26 14 -3 9 -16 13 -32 11 -15 -2 -33 -4 -39 -4 -7 -1 -13 -10 -13 -21
0 -12 -7 -20 -16 -20 -13 0 -14 -3 -4 -14 6 -8 19 -12 28 -10 15 5 15 4 1 -5
-8 -5 -71 -19 -140 -30 -389 -63 -576 -92 -679 -106 -63 -9 -122 -19 -130 -22
-8 -3 -35 -5 -59 -3 -50 2 -48 13 -16 -130 16 -74 16 -90 -1 -262 -3 -32 -10
-58 -16 -58 -5 0 -7 -4 -3 -9 3 -5 -2 -16 -10 -24 -8 -9 -15 -21 -15 -27 0 -7
-6 -10 -14 -7 -7 3 -19 0 -25 -6 -8 -8 -11 -8 -11 2 0 8 -5 7 -17 -4 -14 -15
-18 -15 -27 -3 -6 8 -16 13 -22 11 -6 -2 -29 12 -50 31 -21 20 -45 36 -51 36
-7 0 -13 7 -13 15 0 10 -7 15 -17 13 -39 -7 -113 217 -113 342 0 59 26 177 45
206 21 33 2 40 -35 12 -32 -23 -65 -66 -57 -75 3 -2 -1 -16 -8 -29 -9 -18 -12
-64 -10 -156 2 -73 0 -141 -4 -152 -8 -19 -9 -19 -26 8 -25 38 -36 117 -29
203 8 87 0 123 -25 123 -10 0 -22 7 -25 16 -4 10 -14 14 -26 11 -16 -4 -20 0
-20 19 0 30 -15 32 -17 2 -1 -11 -8 -25 -15 -29 -14 -9 -41 9 -33 21 3 5 -10
24 -30 43 -19 19 -35 39 -35 44 0 6 -7 13 -15 17 -9 3 -12 12 -8 22 5 13 2 15
-15 9 -24 -7 -29 4 -10 23 9 9 6 12 -16 12 -15 0 -25 3 -23 8 3 4 0 18 -6 32
l-10 25 -6 -29 c-3 -16 -12 -31 -19 -34 -7 -2 -12 0 -11 5 3 19 -2 33 -12 33
-5 0 -7 -4 -4 -10 3 -5 2 -10 -3 -10 -5 0 -13 -20 -19 -45 -6 -25 -7 -45 -4
-45 4 0 12 -13 18 -30 20 -53 -6 -32 -33 28 -15 31 -43 93 -64 137 -21 44 -66
145 -100 225 -34 80 -68 159 -75 175 -47 105 -75 175 -75 188 0 8 -6 18 -12
23 -7 5 -134 7 -283 4 -148 -3 -643 -5 -1098 -5 l-828 0 28 -22 c56 -45 67
-57 55 -61 -7 -2 -12 -8 -12 -13 0 -13 28 -11 32 2 2 6 21 -3 42 -20 21 -17
44 -31 50 -31 6 0 4 -5 -4 -10 -13 -8 -12 -11 4 -23 19 -14 19 -29 0 -84 -6
-16 -5 -16 9 2 16 20 16 20 17 0 0 -12 -6 -27 -12 -34 -10 -11 -10 -13 0 -7
13 8 17 -6 4 -18 -4 -4 -8 -29 -8 -54 -3 -96 -4 -103 -14 -97 -14 9 -12 -8 3
-24 6 -8 7 -11 1 -8 -8 4 -8 -9 -3 -46 5 -29 11 -95 15 -147 3 -52 9 -112 14
-133 12 -58 -8 -54 -24 5 -22 83 -36 127 -30 95 2 -15 11 -71 19 -124 8 -53
19 -110 25 -127 12 -37 50 -214 50 -233 0 -7 -4 -13 -10 -13 -5 0 -7 8 -4 18
4 12 3 13 -3 4 -6 -8 -21 -11 -36 -8 -16 3 -27 0 -27 -6 0 -6 -8 -4 -18 5 -14
12 -21 14 -30 5 -6 -6 -29 -11 -52 -11 -26 0 -37 -3 -29 -8 8 -4 10 -11 6 -15
-4 -4 -15 0 -24 8 -13 11 -31 14 -58 10 -32 -4 -36 -6 -20 -13 16 -6 14 -8
-12 -8 -23 -1 -33 4 -33 14 0 19 5 19 -65 -4 -33 -11 -63 -18 -67 -15 -17 11
-116 14 -141 5 -17 -7 -27 -7 -27 -1 0 6 -9 10 -20 10 -11 0 -20 5 -20 10 0 6
-4 10 -10 10 -5 0 -10 -7 -10 -15 0 -17 -16 -20 -25 -5 -5 8 -11 8 -19 1 -7
-6 -17 -7 -22 -2 -5 5 -36 5 -69 1 -42 -5 -64 -4 -75 5 -18 15 -50 16 -47 2 1
-5 -3 -11 -10 -14 -7 -3 -9 3 -6 17 6 22 5 22 -26 5 -18 -9 -40 -13 -51 -10
-10 3 -21 2 -24 -3 -6 -11 -76 -3 -76 9 0 15 -28 10 -34 -7 -3 -9 -6 -78 -6
-155 l0 -139 645 0 645 0 0 23 0 22 20 -25 c17 -21 21 -23 30 -10 13 21 12 28
-6 38 -15 9 -22 60 -154 1132 -11 91 -20 177 -20 193 l0 27 245 0 c145 0 252
4 263 10 65 37 75 39 322 51 39 2 340 -12 380 -18 25 -3 50 -7 55 -8 22 -3 71
-18 80 -25 18 -13 590 -29 602 -16 12 12 33 6 33 -9 0 -8 83 -196 183 -418
101 -221 240 -529 308 -684 l124 -283 415 0 c407 0 416 0 450 22 39 24 112 41
136 31 13 -5 13 -7 2 -14 -22 -15 12 -11 62 7 25 9 52 18 60 20 78 19 299 85
370 109 103 36 910 304 963 320 31 10 60 16 62 13 3 -3 -9 -72 -25 -154 -17
-82 -37 -185 -46 -229 -8 -44 -17 -90 -19 -102 l-5 -23 225 0 225 0 0 3315 c0
2939 -2 3315 -15 3315 -13 0 -14 -50 -10 -412z m-6352 -3603 c19 -8 37 -22 41
-31 4 -9 12 -14 22 -10 8 3 13 2 10 -3 -3 -5 5 -12 19 -15 34 -9 31 -31 -7
-71 -27 -30 -37 -33 -71 -30 -69 7 -97 16 -97 32 0 11 -6 14 -26 9 -22 -6 -25
-4 -20 10 3 9 2 22 -2 28 -6 6 -4 23 4 41 7 17 13 26 14 21 0 -6 6 -3 13 6 10
14 25 21 58 27 4 0 22 -6 42 -14z m5500 -525 c50 -39 43 -130 -10 -130 -17 0
-23 -6 -23 -21 0 -18 -3 -19 -15 -9 -8 6 -22 10 -32 8 -22 -5 -62 55 -63 93 0
64 89 101 143 59z m200 -26 c21 -3 41 -13 44 -20 8 -23 -6 -64 -23 -64 -8 0
-18 -8 -21 -17 -7 -18 -69 -82 -81 -84 -4 0 -15 -2 -24 -4 -12 -2 -19 9 -27
43 -23 99 -22 111 15 127 19 8 34 19 34 26 0 7 9 9 23 6 12 -3 39 -9 60 -13z
m-445 -36 c5 -29 5 -46 -2 -51 -6 -5 0 -5 14 -2 14 4 27 7 30 7 33 1 39 -6 50
-52 13 -55 6 -75 -42 -120 -27 -25 -32 -25 -58 2 -14 16 -20 35 -20 70 0 45
-2 48 -25 48 -19 0 -29 9 -42 35 l-17 35 35 35 c47 47 66 45 77 -7z m-170 -38
c-2 -20 -12 -38 -25 -48 -15 -9 -23 -10 -23 -3 0 6 6 11 13 11 14 0 16 9 18
64 0 19 4 25 10 19 6 -6 9 -25 7 -43z m-85 -10 c-5 -34 -3 -40 13 -40 16 0 17
-2 4 -10 -8 -5 -10 -10 -5 -10 6 0 2 -5 -8 -11 -14 -8 -22 -8 -30 1 -9 8 -7 9
7 4 15 -6 17 -4 10 7 -14 22 -16 57 -4 79 16 29 19 25 13 -20z m430 -1123
c-18 -11 -27 -3 -19 18 5 13 8 14 20 3 12 -11 12 -14 -1 -21z m-2127 -58 c3
-6 2 -15 -4 -21 -6 -6 -11 -2 -15 11 -5 22 7 29 19 10z m1868 -108 c3 -5 -5
-8 -18 -7 -13 0 -22 4 -19 9 6 10 31 9 37 -2z m-241 -290 c-14 -11 -14 -31 2
-37 8 -4 15 -10 15 -15 0 -4 -7 -6 -16 -2 -10 4 -20 0 -26 -10 -5 -10 -18 -17
-28 -17 -11 0 -20 -5 -20 -11 0 -8 -4 -8 -15 1 -8 6 -18 9 -22 7 -5 -3 -10 3
-10 14 -1 10 3 19 8 19 6 0 7 -4 4 -10 -3 -5 -1 -10 4 -10 10 0 15 14 12 33 0
4 6 7 14 7 8 0 20 9 27 19 6 11 18 17 26 13 10 -3 13 -1 8 6 -5 8 -2 10 9 5 9
-3 13 -9 8 -12z m-120 -121 c4 -15 0 -20 -15 -20 -10 0 -16 4 -13 10 3 5 1 19
-5 31 -10 18 -10 20 8 10 11 -6 22 -20 25 -31z m107 23 c-8 -3 -23 -14 -33
-24 -20 -22 -36 -25 -33 -6 4 26 18 37 49 36 18 0 25 -3 17 -6z m-4000 -13
c18 -12 2 -12 -25 0 -13 6 -15 9 -5 9 8 0 22 -4 30 -9z m3845 -24 c3 -20 -2
-25 -26 -28 -17 -3 -32 -1 -35 4 -3 4 6 8 19 8 14 0 27 7 30 14 4 10 1 13 -9
9 -7 -3 -14 -1 -14 5 0 10 22 22 29 16 2 -2 5 -14 6 -28z m-135 -166 c0 -5 -5
-10 -11 -10 -5 0 -7 5 -4 10 3 6 8 10 11 10 2 0 4 -4 4 -10z"/>
<path d="M1953 3907 c-16 -7 -23 -19 -23 -39 0 -31 4 -33 65 -42 l41 -6 -4 36
c-5 43 -43 68 -79 51z"/>
<path d="M5820 3762 c-38 -12 -47 -31 -39 -80 4 -26 4 -51 1 -57 -4 -5 -7 -16
-9 -24 -2 -19 -34 -62 -55 -75 -12 -7 -24 -6 -43 4 -19 10 -31 11 -43 4 -23
-15 -28 -65 -8 -76 9 -5 16 -14 16 -21 0 -7 6 -24 14 -39 20 -38 10 -69 -40
-122 -6 -6 -14 -27 -17 -46 -6 -32 -4 -37 31 -59 54 -36 90 -70 124 -119 16
-23 34 -40 39 -37 5 4 7 11 4 16 -4 5 -1 9 4 9 6 0 11 20 11 44 0 24 6 57 14
73 8 15 19 41 25 56 11 28 13 29 70 25 56 -4 81 6 81 32 0 5 4 10 8 10 4 0 20
24 36 54 15 29 48 70 72 90 36 31 42 40 35 59 -5 12 -5 32 0 44 5 15 2 26 -11
38 -11 10 -17 22 -13 28 3 5 0 7 -8 5 -8 -3 -13 -11 -11 -17 3 -14 -8 -14 -39
1 -15 7 -36 35 -54 72 -29 61 -31 67 -34 87 0 6 -10 8 -21 4 -12 -4 -27 -1
-35 5 -9 7 -26 9 -41 6 -14 -4 -31 -3 -37 2 -7 5 -19 7 -27 4z"/>
<path d="M2979 3721 c-53 -33 -87 -85 -68 -107 6 -8 18 -14 25 -14 7 0 21 -11
30 -25 9 -14 20 -22 25 -19 5 3 9 -7 9 -21 0 -19 -15 -42 -50 -77 -27 -27 -50
-56 -50 -63 0 -21 33 -84 47 -89 17 -7 91 69 99 100 3 13 12 24 19 24 7 0 15
9 18 20 3 11 0 18 -6 17 -6 -1 -13 8 -15 19 -2 12 -14 26 -28 32 -30 14 -30
23 2 87 28 58 38 111 23 121 -20 12 -55 10 -80 -5z"/>
<path d="M167 3561 c-26 -44 -21 -57 28 -80 57 -27 57 -27 78 8 22 38 22 47
-8 76 -34 35 -76 33 -98 -4z"/>
<path d="M3420 3342 c0 -7 -6 -12 -12 -11 -27 3 -48 -1 -48 -11 0 -15 -33 -50
-48 -50 -29 0 -47 -36 -58 -115 -3 -16 -10 -42 -16 -57 -14 -36 -3 -74 22 -81
17 -4 24 2 36 34 16 38 36 50 49 29 15 -25 26 7 22 66 -4 68 1 73 49 46 12 -6
24 -8 28 -5 3 3 6 1 6 -5 0 -7 -4 -12 -9 -12 -8 0 15 -109 25 -119 9 -10 40
36 42 62 1 22 -4 31 -26 40 -15 7 -27 18 -28 25 -1 6 -2 21 -2 33 -1 11 -7 17
-12 14 -7 -4 -8 11 -4 44 3 28 1 57 -5 68 -6 10 -11 12 -11 5z"/>
<path d="M710 3255 c0 -18 7 -28 26 -35 34 -13 34 -14 32 18 -2 30 -14 42 -40
42 -13 0 -18 -8 -18 -25z"/>
<path d="M4126 3103 c-11 -11 -6 -23 9 -23 8 0 15 4 15 9 0 13 -16 22 -24 14z"/>
<path d="M3350 2990 c0 -5 5 -10 11 -10 5 0 7 5 4 10 -3 6 -8 10 -11 10 -2 0
-4 -4 -4 -10z"/>
<path d="M3377 2978 c-5 -16 -1 -27 11 -36 15 -11 17 -10 20 9 2 12 -3 28 -11
36 -12 13 -15 12 -20 -9z"/>
<path d="M5771 2824 c0 -11 3 -14 6 -6 3 7 2 16 -1 19 -3 4 -6 -2 -5 -13z"/>
<path d="M5770 2775 c0 -19 8 -37 21 -48 38 -33 37 4 -1 53 l-20 25 0 -30z"/>
<path d="M1410 2650 c0 -5 7 -7 15 -4 8 4 15 8 15 10 0 2 -7 4 -15 4 -8 0 -15
-4 -15 -10z"/>
<path d="M2238 2588 c-13 -10 -14 -15 -5 -23 12 -10 62 -16 52 -7 -3 3 0 11 6
19 8 8 8 13 1 13 -6 0 -16 2 -24 5 -7 3 -21 0 -30 -7z"/>
<path d="M0 2001 l0 -141 253 6 c138 3 307 9 375 15 68 5 151 9 186 9 34 0 66
3 69 7 4 3 -2 21 -14 39 -16 27 -19 42 -13 83 8 59 17 55 -156 70 -218 19
-255 22 -369 27 -63 3 -117 7 -121 9 -4 3 -53 7 -109 11 l-101 6 0 -141z"/>
<path d="M6015 1410 c-3 -5 -1 -10 4 -10 6 0 11 5 11 10 0 6 -2 10 -4 10 -3 0
-8 -4 -11 -10z"/>
<path d="M1125 1331 c-3 -5 -1 -12 5 -16 5 -3 10 1 10 9 0 18 -6 21 -15 7z"/>
<path d="M2570 1137 c-61 -40 -65 -45 -64 -79 1 -20 4 -44 8 -54 6 -15 10 -12
32 17 38 51 97 150 92 154 -2 2 -33 -15 -68 -38z"/>
<path d="M5815 1040 c-3 -5 -1 -10 4 -10 6 0 11 5 11 10 0 6 -2 10 -4 10 -3 0
-8 -4 -11 -10z"/>
<path d="M5750 1000 c0 -5 5 -10 10 -10 6 0 10 5 10 10 0 6 -4 10 -10 10 -5 0
-10 -4 -10 -10z"/>
<path d="M5810 1000 c0 -5 4 -10 9 -10 6 0 13 5 16 10 3 6 -1 10 -9 10 -9 0
-16 -4 -16 -10z"/>
<path d="M410 970 c-14 -16 -31 -30 -37 -30 -7 0 -13 -6 -13 -14 0 -8 -6 -17
-12 -20 -10 -5 -10 -7 0 -12 6 -3 12 -12 12 -20 0 -9 -4 -12 -10 -9 -5 3 -10
-3 -10 -14 0 -14 5 -19 15 -15 11 5 15 -1 15 -19 0 -40 31 -86 63 -93 38 -8
45 1 52 65 3 30 10 72 16 94 12 45 6 78 -17 101 -23 23 -46 19 -74 -14z"/>
<path d="M5736 954 c-8 -22 -8 -24 8 -24 15 0 28 24 19 34 -11 10 -21 7 -27
-10z"/>
<path d="M1648 724 c6 -11 13 -40 17 -67 4 -26 12 -50 17 -53 6 -4 207 -19
447 -34 498 -31 477 -33 445 47 -10 26 -19 53 -19 60 0 25 -21 28 -183 30 -92
1 -225 4 -297 7 -71 3 -194 8 -273 11 -79 3 -148 8 -154 11 -7 4 -7 0 0 -12z"/>
<path d="M3750 696 c0 -8 4 -17 9 -20 5 -4 7 3 4 14 -6 23 -13 26 -13 6z"/>
<path d="M538 313 c6 -2 18 -2 25 0 6 3 1 5 -13 5 -14 0 -19 -2 -12 -5z"/>
<path d="M5550 230 c-22 -22 -46 -100 -54 -177 -4 -47 -3 -53 13 -53 15 0 20
10 25 48 10 64 15 82 28 82 7 0 9 -21 4 -65 -6 -60 -5 -65 13 -65 17 0 20 10
26 86 8 86 -5 164 -25 164 -6 0 -19 -9 -30 -20z"/>
<path d="M5405 172 c-20 -14 -55 -98 -55 -132 0 -32 3 -36 29 -38 27 -2 30 1
35 35 8 53 11 131 5 137 -2 3 -9 2 -14 -2z"/>
<path d="M5192 107 c-14 -16 -42 -82 -42 -97 0 -14 97 -13 102 1 2 6 1 32 -2
58 -4 37 -9 47 -26 49 -11 2 -26 -3 -32 -11z"/>
</g>
</svg>
